<svg version="1.1" id="Layer_1" xmlns="http://www.w3.org/2000/svg" xmlns:xlink="http://www.w3.org/1999/xlink" x="0px" y="0px"
	 width="100%" viewBox="0 0 832 848" enable-background="new 0 0 832 848" xml:space="preserve">
<path fill="#000000" opacity="1.000000" stroke="none" 
	d="
M648.388794,440.214294 
	C648.802246,451.279114 651.595093,461.633240 651.269409,472.405609 
	C650.736694,490.028931 652.258789,507.673767 652.313232,525.270630 
	C652.410339,556.657227 652.650269,588.054688 652.296326,619.445740 
	C652.250977,623.463379 652.221130,627.333557 654.777222,630.907043 
	C655.836182,632.387512 655.862183,634.706299 656.077576,636.674622 
	C657.509277,649.761047 656.017700,662.857971 656.117249,675.952393 
	C656.251526,693.613098 656.298096,711.276550 656.119690,728.936157 
	C656.076355,733.226135 658.118408,736.930359 658.321289,741.153442 
	C658.949280,754.226685 656.498230,767.031372 654.603943,779.787598 
	C653.878052,784.675293 651.866028,790.310303 647.946106,794.443970 
	C646.220642,796.263428 645.412842,798.443359 644.879883,801.045898 
	C643.852173,806.064575 639.376953,808.877808 635.773621,811.898376 
	C627.628357,818.726440 618.970276,824.839294 608.899841,828.740967 
	C600.303284,832.071594 591.574036,835.037109 582.449341,836.080811 
	C578.605347,836.520447 576.613770,839.550171 573.091125,840.332703 
	C567.029846,841.679321 561.421753,839.084106 555.501099,839.387634 
	C548.029541,839.770691 540.242615,838.049561 533.099365,839.590027 
	C526.632446,840.984680 520.562561,839.396179 514.462891,839.370361 
	C505.769867,839.333679 496.829834,838.415955 488.462219,840.122681 
	C466.836212,844.533875 445.079102,842.963013 423.363190,843.192261 
	C393.209778,843.510620 363.051666,843.490479 332.896027,843.417053 
	C324.089294,843.395569 315.165955,844.375244 306.562500,843.865479 
	C290.826569,842.933105 274.833191,845.714783 259.246735,840.864441 
	C255.559448,839.716980 251.091858,837.861084 246.728882,840.614624 
	C245.052475,841.672607 242.778061,840.375732 242.777176,838.193848 
	C242.775940,835.176392 240.707321,833.906616 239.042953,832.090149 
	C233.374863,825.903687 227.555283,820.317810 225.324966,811.242432 
	C222.913574,801.430176 222.504807,791.522949 221.407700,781.705017 
	C220.778717,776.076355 221.546295,769.230408 219.285095,764.875183 
	C216.270645,759.069031 220.474060,752.907715 216.309723,748.013123 
	C216.218628,747.906128 216.174622,747.650330 216.238220,747.536072 
	C220.388962,740.084351 215.756607,732.495605 216.533112,724.886353 
	C217.320023,717.175049 216.215622,709.271851 215.957626,701.452148 
	C215.864182,698.619812 215.653488,695.944885 214.064560,693.336060 
	C212.135895,690.169434 212.470520,686.569153 213.913849,683.217407 
	C215.912323,678.576538 216.288589,674.110291 214.389969,669.201782 
	C212.334686,663.888184 214.617203,658.322021 214.586517,652.847412 
	C214.540848,644.692566 213.985794,636.682678 212.878082,628.574036 
	C212.300095,624.343018 212.845551,619.504639 212.841217,614.942200 
	C212.825089,597.944641 212.789871,580.947021 212.707748,563.949646 
	C212.685211,559.282166 212.483398,554.631104 210.418060,550.267639 
	C209.941116,549.260010 209.770325,547.984192 209.845078,546.857422 
	C210.738632,533.388428 208.455551,520.018127 208.815567,506.536682 
	C209.290421,488.754761 208.884430,470.953186 209.101852,453.155792 
	C209.396896,429.004456 209.139099,404.841003 208.734940,380.689148 
	C208.579361,371.392639 207.688171,362.075073 206.560242,352.836884 
	C205.224472,341.896362 206.296341,330.861206 204.824493,319.960907 
	C204.217163,315.463104 205.054367,310.703125 202.556229,306.517456 
	C202.391342,306.241180 202.228897,305.872131 202.271973,305.576324 
	C203.737991,295.512482 200.911240,285.637390 200.962509,275.634155 
	C200.982895,271.656952 200.429428,267.830231 199.240341,263.903656 
	C198.155838,260.322449 195.758804,256.525726 198.909775,252.128296 
	C200.335709,250.138290 197.692688,246.608353 197.753448,243.513550 
	C197.933289,234.353653 197.667862,225.185822 197.674957,216.021164 
	C197.676910,213.493225 197.534546,211.022568 196.644684,208.650803 
	C192.811478,198.434021 194.698471,187.719604 193.910309,177.240280 
	C193.361954,169.949188 190.835022,163.101974 189.454285,156.002960 
	C188.378677,150.472794 187.175003,144.946701 186.511047,139.361389 
	C184.821915,125.152306 184.743118,111.189552 188.149673,96.917877 
	C190.718307,86.156624 195.243011,76.524300 199.942047,66.878365 
	C203.787140,58.985348 210.820587,53.593494 218.278259,49.216469 
	C224.838959,45.365894 231.994965,42.533276 238.580383,38.719803 
	C242.707184,36.330070 247.652267,38.238144 251.640335,35.104668 
	C254.921982,32.526207 258.976135,31.467245 263.494965,31.943787 
	C267.113708,32.325409 270.790222,31.386286 273.810974,28.914110 
	C274.309967,28.505735 274.968414,28.138868 275.592316,28.059059 
	C287.746216,26.504375 299.428619,21.817091 312.109100,23.327427 
	C315.322632,23.710175 319.379608,23.219822 322.751434,21.330353 
	C324.811218,20.176109 327.083557,19.611881 329.155731,21.767513 
	C330.607208,23.277447 332.558105,22.830994 334.358276,22.494280 
	C352.213440,19.154528 370.170898,18.231014 388.234131,20.338276 
	C390.777130,20.634939 393.120819,20.551617 395.591919,19.796625 
	C402.720856,17.618538 410.014099,17.626301 417.442108,17.207764 
	C432.965240,16.333107 448.642395,19.049213 464.137482,14.554661 
	C473.337463,11.886072 483.406494,12.515292 492.833038,14.790869 
	C501.405396,16.860243 509.979523,17.432173 518.596802,16.762596 
	C524.944031,16.269402 531.260681,19.163282 537.593872,16.607357 
	C538.422302,16.273024 540.155823,16.866894 540.799438,17.610973 
	C544.001343,21.312550 548.182495,20.708652 552.334290,20.760685 
	C561.238708,20.872274 569.506348,23.571402 577.486389,27.320866 
	C578.535034,27.813587 579.841248,28.721533 580.724670,28.449944 
	C587.661133,26.317556 591.010254,31.915258 595.093750,35.282562 
	C601.382812,40.468597 607.556152,46.332954 610.732483,53.794037 
	C613.637085,60.617085 617.807190,66.309021 621.955994,72.190750 
	C623.199158,73.953087 621.241150,76.651825 622.550354,77.936417 
	C627.481567,82.774979 625.073730,89.900169 628.396118,95.239655 
	C629.641541,97.241234 630.181274,100.030716 630.121643,102.438133 
	C629.775269,116.416649 632.904236,130.138855 634.810120,143.738525 
	C637.792664,165.020706 636.985901,186.153137 637.136841,207.340836 
	C637.210815,217.712067 638.628418,227.725845 640.712891,237.742981 
	C642.053223,244.184555 641.266174,250.662399 641.188171,257.087616 
	C641.093506,264.887329 642.588928,272.346649 644.837219,279.615234 
	C646.884888,286.235046 646.474365,292.891052 645.688721,299.365692 
	C645.224121,303.194733 645.174683,306.950714 645.245239,310.696228 
	C645.574402,328.169556 645.760681,345.693420 645.527405,363.111084 
	C645.360840,375.543701 648.877502,387.225647 648.927124,399.359528 
	C648.982239,412.830688 648.592834,426.303650 648.388794,440.214294 
M221.983978,447.339142 
	C221.763947,453.659454 221.419876,459.978271 221.344452,466.300293 
	C220.927307,501.270508 221.052124,536.221313 225.127396,571.035522 
	C225.441788,573.721313 226.474701,574.797913 229.048981,575.141846 
	C233.689041,575.761719 238.330658,575.866699 243.000793,575.940979 
	C258.323303,576.184448 273.660858,574.817505 288.915863,575.273621 
	C304.380005,575.736023 319.878113,576.304626 335.333618,576.446045 
	C358.125153,576.654541 380.863190,577.000061 403.582672,579.045227 
	C423.220123,580.813049 442.810516,580.474243 462.083008,575.487976 
	C463.679718,575.074951 465.366272,574.869690 467.017548,574.828613 
	C483.987946,574.405945 500.801147,572.081604 517.675842,570.553345 
	C526.116638,569.789001 534.681458,570.276184 543.002686,568.292114 
	C553.335388,565.828430 563.654419,563.306580 573.969849,560.771362 
	C580.384583,559.194702 586.895447,559.858704 593.377686,559.831848 
	C595.706543,559.822205 597.878113,559.631531 597.712097,556.470459 
	C597.215027,547.005188 597.314880,537.458069 596.058411,528.093567 
	C593.247253,507.141144 590.385925,486.269104 590.758667,465.014191 
	C591.050232,448.384613 592.317993,431.598175 589.579956,415.125031 
	C587.379822,401.888214 586.926025,388.687988 586.601257,375.362793 
	C585.621521,335.163269 588.382202,294.933624 583.237732,254.725159 
	C581.259216,239.261551 580.235046,223.265976 580.755249,207.429657 
	C580.919983,202.413620 579.818909,197.509003 579.402527,192.572220 
	C578.745850,184.786942 576.334351,177.188675 576.777771,169.340836 
	C577.131836,163.073868 575.777283,157.124985 574.407471,151.123367 
	C573.497253,147.135803 571.305115,145.344070 567.045654,145.273682 
	C540.721741,144.838547 514.413147,145.369644 488.113403,146.354126 
	C481.642822,146.596344 475.201416,147.557404 468.739136,148.098785 
	C460.787933,148.764923 452.866150,150.860428 444.877411,149.747482 
	C435.445679,148.433487 425.930450,147.635452 416.502502,147.646606 
	C372.586853,147.698517 328.671234,144.899490 284.749695,149.805161 
	C262.823730,152.254089 240.533646,151.439041 218.408646,152.113144 
	C214.422287,152.234604 210.488617,151.404816 206.452759,151.846970 
	C202.722153,152.255661 201.344589,153.979492 202.178207,157.442261 
	C205.732376,172.205719 205.767792,187.427628 208.099564,202.360443 
	C210.049957,214.850983 209.039841,227.715225 210.946884,240.146332 
	C215.071335,267.031708 215.245148,294.189606 217.772827,321.175659 
	C220.426437,349.506073 218.757507,378.064209 221.147171,406.467957 
	C222.260437,419.700409 221.766846,433.068085 221.983978,447.339142 
M278.785828,814.066711 
	C323.582825,813.929993 368.380829,813.553223 413.176453,813.742554 
	C442.159271,813.864990 471.127533,812.768555 500.093842,812.996216 
	C520.025391,813.152832 539.987610,810.274658 559.905884,813.387207 
	C561.458374,813.629822 563.331909,813.221375 564.775208,812.529358 
	C573.491089,808.350586 581.759277,803.816223 588.052917,795.876160 
	C599.639099,781.259094 601.799805,763.496155 604.245178,746.328796 
	C606.338806,731.631042 604.685181,716.406311 604.800293,701.415466 
	C604.832153,697.262512 603.017578,696.608154 599.455078,697.749390 
	C595.471680,699.025513 591.274414,699.693542 587.136292,699.426392 
	C581.707886,699.076050 576.513367,699.693298 571.400879,701.405212 
	C568.984802,702.214233 566.483948,702.192200 563.982971,702.198975 
	C546.039490,702.247559 528.156677,704.329834 510.200928,703.863098 
	C498.159943,703.550049 486.390137,705.647705 474.501312,707.090698 
	C455.126678,709.442322 435.527435,708.683655 416.108704,707.749268 
	C401.091034,707.026611 386.197815,708.437134 371.239410,708.037048 
	C358.262146,707.689880 345.276978,707.976135 332.284302,707.566772 
	C321.006989,707.211243 309.738220,706.352173 298.395111,706.878418 
	C287.627563,707.377930 276.749969,708.426147 266.000824,706.301636 
	C255.854828,704.296387 245.514114,704.424683 235.286072,703.340576 
	C231.178101,702.905090 228.872818,704.142090 229.188385,708.762695 
	C229.471390,712.906372 229.711731,717.104980 229.656616,721.214722 
	C229.457031,736.096191 233.060455,750.649353 233.068848,765.479980 
	C233.077454,780.669128 234.722641,795.654175 238.211731,810.444519 
	C238.912140,813.413574 239.759109,816.290833 243.513763,815.660278 
	C254.916794,813.745544 266.459259,815.355957 278.785828,814.066711 
M332.911438,134.124054 
	C373.538910,133.503708 414.097107,137.019577 454.736084,136.149918 
	C461.752930,135.999756 468.659210,134.997223 475.613373,134.485992 
	C490.555328,133.387527 505.627991,135.431824 520.463501,132.469742 
	C523.934387,131.776718 527.440979,131.784729 530.920044,132.102493 
	C542.682434,133.176865 554.397827,133.907257 566.245850,132.700714 
	C570.493286,132.268188 571.521973,130.786804 570.916748,127.274719 
	C569.705872,120.248177 568.215149,113.284279 565.553284,106.620453 
	C562.907104,99.995895 560.455505,93.292580 557.747864,86.693855 
	C553.727905,76.897255 550.116455,66.922928 543.944397,58.123310 
	C539.507935,51.798157 532.819702,50.268734 526.250427,47.347347 
	C517.605652,43.503021 509.394226,43.049316 500.570404,43.883484 
	C498.240875,44.103710 495.933868,43.738392 493.615112,43.614605 
	C482.161804,43.003185 470.873871,39.856537 459.333557,40.968700 
	C438.132965,43.011852 416.943848,45.067898 395.610107,45.018890 
	C392.523682,45.011799 389.387543,45.372665 386.825928,47.394394 
	C387.187439,49.801697 388.545197,51.277336 390.084442,52.551559 
	C393.526123,55.400650 395.537689,59.243492 397.465790,63.109764 
	C399.050659,66.287773 398.913330,69.268578 396.722717,72.453072 
	C389.471375,82.994461 378.769806,86.567284 366.041229,82.317963 
	C359.912323,80.271873 357.677399,77.433357 357.683655,71.068878 
	C357.691254,63.360985 356.541565,55.298096 364.171021,49.390656 
	C362.774414,48.800320 362.197540,48.339363 361.627991,48.348171 
	C352.475098,48.489662 343.298615,47.718662 334.171631,48.771366 
	C322.276031,50.143406 310.421570,51.662159 298.448456,52.541691 
	C277.670013,54.068035 256.534332,51.697292 236.146500,57.891708 
	C227.778336,60.434204 218.741272,61.681320 213.129944,69.488617 
	C206.801315,78.293945 204.056793,88.708954 201.541260,98.942352 
	C198.797623,110.103706 198.983978,121.705086 199.334869,133.207153 
	C199.515289,139.121338 200.052017,139.788132 206.021713,139.792664 
	C220.682465,139.803818 235.343292,139.791855 250.003983,139.748413 
	C253.497238,139.738068 257.131622,140.158035 260.456360,139.360153 
	C270.231964,137.014114 280.264587,137.203140 290.142120,136.121704 
	C304.008270,134.603561 318.053009,134.716599 332.911438,134.124054 
M579.035156,814.711792 
	C575.028076,816.298828 571.127441,818.067932 566.979370,819.399414 
	C552.172302,824.152710 536.868774,821.382385 521.855042,822.857544 
	C510.108643,824.011658 498.270203,822.373718 486.420929,822.754578 
	C452.620422,823.841431 418.790955,823.144226 384.969330,823.959656 
	C345.167633,824.919128 305.338959,824.751648 265.522308,825.111572 
	C263.845184,825.126709 261.989838,824.615967 260.437378,825.757568 
	C263.969818,830.399292 268.965668,830.479675 273.735870,830.665710 
	C299.514008,831.671082 325.301392,831.169373 351.116577,832.351440 
	C386.700317,833.980774 422.415894,832.897522 458.072693,832.649475 
	C467.034912,832.587219 476.273621,832.434082 484.887054,830.306091 
	C503.202454,825.781189 521.588745,826.964783 540.032166,827.474915 
	C547.671143,827.686157 555.332214,828.691833 562.932739,828.315430 
	C573.734314,827.780579 584.069702,824.269226 594.580261,821.915955 
	C600.828918,820.516968 606.528687,817.763184 611.607361,813.984009 
	C624.529419,804.368225 634.336853,792.920227 635.471313,775.662537 
	C636.001526,767.595642 639.368408,759.680908 639.633423,751.637390 
	C640.411682,728.010071 639.696289,704.359985 638.846924,680.730286 
	C638.764099,678.424622 638.552979,675.931641 637.613342,673.887878 
	C635.536560,669.370544 635.545166,664.927429 636.724915,660.262939 
	C637.644836,656.625244 636.110657,654.531372 632.367432,653.952820 
	C629.901306,653.571655 627.401855,653.153931 625.269287,651.718689 
	C623.422302,650.475525 621.722107,648.968445 622.100830,646.483459 
	C622.442566,644.240479 624.494324,644.073364 626.272461,643.554321 
	C633.895081,641.329468 634.753357,640.227783 634.681702,632.301819 
	C634.511597,613.497375 634.171509,594.693970 634.079529,575.889282 
	C633.958252,551.079346 633.956787,526.268433 634.030823,501.458344 
	C634.044983,496.720703 633.314270,492.163574 631.927490,487.702118 
	C631.072937,484.953003 630.461609,482.190338 630.771790,479.350800 
	C632.081848,467.359070 628.851624,455.611542 629.291382,443.553864 
	C629.888611,427.177979 627.233887,410.727234 629.697510,394.308075 
	C629.991272,392.349854 630.023560,390.284668 629.767090,388.322601 
	C628.056824,375.235474 629.311401,362.089050 628.953552,348.975372 
	C628.503784,332.491180 628.882568,315.985504 628.807190,299.489502 
	C628.775269,292.499725 629.009277,285.452820 628.222290,278.534302 
	C626.700134,265.154175 624.260559,251.874939 624.817505,238.316193 
	C624.891418,236.516571 624.735535,234.596405 624.176697,232.899872 
	C620.481689,221.682419 619.321472,210.205780 619.613403,198.424118 
	C619.827148,189.795029 619.000427,181.153992 619.655334,172.498077 
	C619.943054,168.695175 619.644958,164.836151 619.437073,161.012177 
	C619.320862,158.873962 618.469666,156.669907 615.845337,157.308197 
	C608.372253,159.125763 600.700500,159.484726 593.159424,160.759491 
	C589.691711,161.345688 588.941162,163.284958 589.699219,166.507156 
	C590.420532,169.572708 590.475830,172.801468 591.268860,175.842484 
	C594.022644,186.403183 592.967346,197.328110 594.665161,208.048172 
	C597.025940,222.954437 598.572815,238.027054 598.167236,253.270203 
	C597.835999,265.720947 598.009583,278.295868 599.427612,290.647156 
	C600.552673,300.446564 600.694214,310.219604 601.428894,319.987061 
	C602.245422,330.844940 601.088928,341.599091 601.295715,352.399567 
	C601.936218,385.862305 602.529602,419.326019 603.110229,452.789856 
	C603.341309,466.110809 601.494202,479.597076 603.547852,492.720917 
	C606.975708,514.627686 607.539612,536.755676 610.164368,558.701782 
	C610.659912,562.844299 610.700684,566.984619 610.344666,571.148743 
	C609.710693,578.562988 608.589417,586.030701 612.778198,592.959900 
	C613.292358,593.810425 613.072571,595.278625 612.832275,596.382019 
	C611.608459,602.001099 611.632446,607.723572 612.356323,613.302856 
	C613.433716,621.606812 613.417419,629.890991 613.422974,638.214905 
	C613.425354,641.859131 613.996094,645.510132 614.416931,649.145569 
	C616.095947,663.647522 615.735107,678.271179 616.724915,692.823486 
	C617.424011,703.102173 616.707947,713.747070 616.347656,724.220215 
	C616.096008,731.533752 617.028503,738.860596 615.754761,746.168396 
	C613.671448,758.121704 610.605103,769.658020 606.264465,781.115967 
	C600.855164,795.395203 592.125916,806.138794 579.035156,814.711792 
M226.039719,610.556091 
	C226.182739,615.045227 226.185547,619.522522 226.666672,624.016602 
	C228.866348,644.563293 228.799362,665.208374 228.631851,685.829468 
	C228.596054,690.236145 230.077255,691.561646 233.914764,691.587646 
	C235.409683,691.597778 236.905899,691.672974 238.399155,691.632141 
	C250.568451,691.299744 262.577881,694.011108 274.774567,693.496765 
	C270.912018,692.557129 267.014954,691.862305 263.127197,691.118835 
	C259.486694,690.422729 256.020081,689.306396 253.229904,686.696167 
	C246.543137,680.440796 243.398224,672.435730 242.884750,663.577332 
	C242.239563,652.446228 242.188950,641.275818 242.065903,630.120422 
	C241.895798,614.697998 242.839417,611.275940 260.659973,606.318359 
	C261.460663,606.095520 262.286194,605.962585 263.099274,605.783569 
	C275.347656,603.085876 287.598450,604.295227 299.879059,605.604370 
	C309.919647,606.674683 311.690063,608.017395 314.012970,617.721252 
	C314.453583,619.561890 314.459412,621.584656 316.369629,622.777161 
	C317.817963,621.251709 317.869476,619.486511 318.019348,617.895935 
	C318.845184,609.130127 323.799561,605.499878 332.243042,603.267822 
	C350.525482,598.434753 367.931366,602.901306 385.545410,606.161560 
	C388.996704,606.800415 391.092377,609.388367 391.013580,613.003418 
	C390.836700,621.117615 393.453064,628.766479 395.029236,636.536133 
	C397.519989,648.814209 397.216858,661.004883 395.967255,673.281799 
	C395.668182,676.220032 394.123932,678.879272 391.499634,680.166687 
	C383.918457,683.885864 376.549774,687.989075 367.597015,688.135681 
	C356.467529,688.317932 345.699036,687.222046 335.308929,683.033875 
	C328.858215,680.433655 324.721558,676.265930 324.665253,668.906311 
	C324.645966,666.387695 324.426208,663.808777 322.938843,661.713196 
	C319.988800,657.556824 319.484100,652.699402 318.989014,647.938293 
	C318.555542,643.769470 318.898560,639.520020 318.898560,635.306152 
	C318.141541,646.792847 318.708496,658.304626 317.994843,669.736389 
	C317.145386,683.343750 312.851868,689.656433 300.040497,691.621155 
	C298.533112,691.852295 297.063934,692.332886 294.622223,692.932129 
	C296.172516,693.341736 296.633850,693.554138 297.103577,693.574829 
	C319.058990,694.544189 341.016449,695.198975 363.002625,694.928589 
	C376.471802,694.762878 389.967987,694.692566 403.413391,695.359558 
	C414.225616,695.895874 425.028046,696.011841 435.838348,696.252930 
	C457.874939,696.744324 479.630310,692.611694 501.548248,692.091980 
	C529.847717,691.420898 558.098450,690.508728 586.268066,687.700134 
	C590.897522,687.238525 595.508240,686.477600 600.081543,685.611511 
	C602.479187,685.157471 604.581299,683.823914 604.580505,680.999634 
	C604.577454,670.676270 605.836060,660.100342 604.009399,650.096130 
	C601.927002,638.690857 602.160767,627.264038 600.956787,615.889771 
	C599.436279,601.526184 598.883118,587.058594 597.997314,572.630676 
	C597.805725,569.509827 596.400757,567.988281 593.287354,568.290588 
	C588.983765,568.708557 584.682434,569.169983 580.394287,569.722961 
	C567.838623,571.342163 556.686768,578.268127 543.742676,578.862061 
	C528.315796,579.569824 513.189819,583.758179 497.585724,583.191895 
	C489.440002,582.896301 481.343689,583.624329 473.200928,584.652039 
	C458.907196,586.456116 445.183533,591.498047 430.540222,591.462158 
	C425.548859,591.449951 420.447235,592.204285 415.715912,590.713440 
	C402.421478,586.524109 388.790497,587.196106 375.179291,587.052734 
	C352.532318,586.814270 329.876312,587.841797 307.234589,586.359314 
	C300.623260,585.926392 294.089264,585.019836 287.329346,585.517456 
	C268.723907,586.887024 250.054184,586.766846 231.425797,585.606506 
	C227.013931,585.331665 225.135605,586.829956 225.303055,591.120056 
	C225.543335,597.275696 225.791077,603.431091 226.039719,610.556091 
M521.341431,30.620678 
	C526.225220,32.523712 531.785522,32.676170 536.015564,36.268276 
	C540.581299,40.145397 545.270752,43.795330 550.502625,46.815327 
	C554.577148,49.167301 557.415894,52.854343 559.488586,57.236225 
	C562.614929,63.845833 565.999756,70.327156 568.484497,77.226334 
	C573.206970,90.338882 580.252563,102.560295 583.475098,116.247574 
	C584.047668,118.679573 585.439819,119.551170 587.863586,118.914116 
	C594.856934,117.075989 602.023804,117.115334 609.177734,116.933784 
	C614.901611,116.788521 616.572266,114.676003 615.303955,108.976669 
	C614.330017,104.599686 612.894531,100.327316 611.843933,95.965157 
	C607.679443,78.674072 601.726868,62.235500 589.822815,48.534283 
	C588.634033,47.166054 587.595215,45.604130 586.783264,43.983601 
	C584.243164,38.914013 579.725220,36.548782 574.617432,35.316307 
	C569.620178,34.110512 564.491150,33.445698 559.414795,32.573883 
	C549.255676,30.829187 539.160767,27.248697 529.126282,26.745543 
	C507.748230,25.673592 486.284821,23.839109 464.845215,25.399965 
	C455.709595,26.065065 446.542328,25.786289 437.415070,26.407776 
	C437.418518,26.819298 437.421997,27.230820 437.425446,27.642342 
	C465.948883,27.642342 494.472321,27.642342 523.969604,27.642342 
	C522.442139,29.050871 521.869507,29.578926 521.341431,30.620678 
M336.673065,618.992676 
	C337.967133,617.951050 339.447693,618.341370 340.935730,618.249390 
	C345.613312,617.960449 350.179932,618.460449 354.640472,615.266235 
	C361.675385,610.228455 373.939514,615.325623 377.342255,623.319641 
	C380.867462,631.601257 380.086578,640.322937 381.010651,648.862854 
	C381.399597,652.457092 379.146240,654.970093 376.059692,656.906921 
	C370.528320,660.378052 364.424408,658.967712 358.526703,659.421326 
	C351.926971,659.929016 345.141785,659.606201 339.197845,663.360596 
	C335.844482,665.478760 335.083099,668.735291 337.601257,671.708008 
	C340.010193,674.551758 342.981415,676.727234 346.988556,676.733032 
	C354.486481,676.743896 362.045197,677.309814 369.463684,676.538940 
	C375.681946,675.892761 382.870056,674.353882 385.166168,667.710693 
	C387.340454,661.420105 389.975433,654.228333 384.145782,647.846924 
	C383.266083,646.883911 383.242065,645.042358 383.035950,643.577148 
	C381.949341,635.852966 381.263947,628.104431 378.970184,620.538635 
	C377.626984,616.108215 375.403656,613.841125 370.989929,612.845398 
	C360.152954,610.400818 349.437561,612.112244 338.766510,613.638611 
	C334.233307,614.287109 330.398926,616.484558 330.214264,622.270874 
	C329.870789,633.032776 331.238647,643.587402 333.118073,654.121094 
	C334.393585,645.986633 332.797455,637.958923 332.479126,629.895874 
	C332.317749,625.808594 333.053925,622.317017 336.673065,618.992676 
M305.346893,659.297852 
	C305.680023,648.841980 306.208191,638.366394 303.718384,628.069641 
	C302.551086,623.242188 302.964203,616.703735 296.554535,615.724915 
	C286.294922,614.158203 275.930969,615.105286 265.726013,617.194092 
	C270.485901,618.497314 275.255463,617.861206 281.302155,616.376770 
	C277.215912,621.704041 279.700592,625.892029 280.134277,630.062561 
	C281.459717,642.808350 281.508148,642.803345 294.169525,644.989136 
	C299.807068,645.962280 302.948334,650.774109 301.636383,656.287109 
	C301.417694,657.206055 301.287872,658.394348 301.682800,659.170166 
	C303.977600,663.678650 302.464142,667.931763 301.104126,672.237244 
	C300.692688,673.539795 299.432983,674.918335 301.739838,676.646729 
	C305.975250,671.690308 306.032349,665.972839 305.346893,659.297852 
M585.971680,134.252762 
	C587.522278,136.814499 587.548401,139.666733 587.332764,142.486511 
	C586.979309,147.108368 588.662903,149.276016 593.604431,148.954254 
	C597.420593,148.705795 601.193420,148.347198 604.986328,147.843491 
	C617.860352,146.133774 617.887756,146.119690 615.887146,133.467545 
	C615.484985,130.924316 614.344055,130.078659 611.964783,130.104706 
	C604.815125,130.183029 597.663635,130.127182 590.514832,130.243332 
	C588.326660,130.278885 586.073608,130.599152 585.971680,134.252762 
M393.769318,31.927818 
	C401.301056,31.927818 408.832825,31.927818 416.364563,31.927818 
	C416.350006,31.419165 416.335480,30.910509 416.320923,30.401855 
	C415.013214,30.321987 413.705627,30.175240 412.397736,30.172333 
	C394.096161,30.131672 375.794373,30.059998 357.493134,30.130407 
	C354.102173,30.143452 350.163696,28.933325 348.173157,33.561890 
	C347.672180,34.726780 345.486664,34.766541 343.989716,34.625465 
	C329.010529,33.213776 314.099548,35.790504 299.138184,35.359085 
	C296.577118,35.285233 294.017517,35.444637 291.004059,37.548767 
	C325.632965,36.809044 359.364197,36.806213 393.769318,31.927818 
M363.288391,642.539185 
	C359.612701,644.124695 356.171387,645.265991 352.691803,641.657776 
	C351.419159,640.338074 348.599976,640.376465 347.326996,642.299194 
	C345.666626,644.806946 345.216980,647.942322 345.589172,650.860413 
	C345.884247,653.173889 348.312653,652.875793 350.097565,652.873962 
	C354.744019,652.869263 359.391907,652.824524 364.035950,652.685852 
	C365.776520,652.633850 368.006348,653.198059 368.846466,651.051453 
	C369.545746,649.264709 368.618988,647.473816 367.698547,645.870239 
	C366.843384,644.380310 365.559875,643.355103 363.288391,642.539185 
M272.526764,659.927368 
	C270.066589,655.620056 267.606445,651.312744 265.146301,647.005493 
	C264.477142,647.954834 264.413300,648.626953 264.642456,649.176880 
	C268.365723,658.112549 274.895966,664.948486 281.573975,671.663879 
	C282.029480,672.121948 282.673950,672.398987 283.246674,672.732544 
	C286.045563,674.362671 288.437195,673.640076 290.219604,671.179749 
	C292.099274,668.585205 293.904205,665.532104 292.026550,662.459900 
	C290.133636,659.362732 287.505432,661.335938 285.024231,662.369019 
	C280.733276,664.155701 276.356720,665.257568 272.526764,659.927368 
M378.526398,59.999901 
	C374.597778,56.681656 372.348572,56.731537 370.635986,60.343784 
	C369.717590,62.280910 368.962097,64.339188 368.473389,66.422615 
	C368.061890,68.176941 368.010162,69.951889 369.931030,71.281113 
	C373.416809,73.693268 380.611053,73.244942 382.820862,69.963364 
	C385.541077,65.923782 382.200684,63.620968 379.773224,61.168873 
	C379.540070,60.933380 379.273834,60.730679 378.526398,59.999901 
M260.496887,667.832947 
	C258.501495,665.410156 257.686859,662.699341 257.855957,659.505310 
	C258.105804,654.785889 256.491638,650.389771 254.991150,644.679810 
	C253.259888,664.938293 254.525955,676.809204 264.772949,678.772766 
	C261.851288,675.639526 263.607208,671.341431 260.496887,667.832947 
M263.345978,629.955139 
	C263.009583,631.406799 262.547760,632.843384 262.371979,634.314270 
	C262.195190,635.794067 262.106232,637.464294 263.732483,638.283020 
	C265.367249,639.106201 266.561127,637.861023 267.760590,637.018677 
	C269.484467,635.807922 270.578857,634.145874 270.655884,632.015747 
	C270.731354,629.928894 271.431427,627.388550 268.719055,626.429077 
	C266.219421,625.544922 264.631866,627.040466 263.345978,629.955139 
M357.121185,625.325989 
	C354.631439,625.348083 352.280029,625.868469 349.932526,626.985413 
	C355.479034,633.324341 355.479034,633.324341 364.960785,626.453491 
	C362.832581,624.158264 360.148071,625.914307 357.121185,625.325989 
M370.542450,635.877686 
	C370.952454,636.855652 370.628601,638.254578 372.428162,638.740967 
	C373.195984,636.074219 373.405640,633.586792 371.943695,631.004578 
	C370.007477,632.164978 370.454559,633.744873 370.542450,635.877686 
M252.178757,825.149658 
	C251.471420,825.309509 250.452988,824.990723 250.439499,826.636841 
	C252.632401,826.290527 254.824173,828.394714 257.217468,826.416504 
	C255.879379,824.689697 254.251633,825.368958 252.178757,825.149658 
z"/>
<path fill="#000000" opacity="1.000000" stroke="none" 
	d="
M356.280853,464.777222 
	C351.945007,453.353516 348.694092,442.130859 348.546112,430.147827 
	C348.465546,423.622498 343.932281,418.187256 343.470154,411.590698 
	C343.262817,408.630707 342.441833,405.662476 342.918945,402.691681 
	C343.493195,399.116211 345.424194,395.837402 349.304169,396.249878 
	C361.853821,397.584076 373.500397,392.597687 385.716766,391.618225 
	C397.535187,390.670654 409.340607,390.733612 421.143585,390.855713 
	C431.047211,390.958160 440.687653,389.780823 450.272400,387.459747 
	C460.204834,385.054474 464.063110,387.337006 465.531647,397.314117 
	C467.110748,408.042725 466.678436,418.905884 465.785187,429.688660 
	C464.907928,440.278198 464.090576,450.937378 462.775635,461.413330 
	C460.181946,482.076660 454.412598,501.843292 435.310394,514.289185 
	C431.777618,516.590881 428.025116,518.193054 423.848846,518.951294 
	C394.775269,524.230042 377.630615,516.846863 363.341675,489.447876 
	C359.283569,481.666473 358.352539,473.350281 356.280853,464.777222 
M373.884918,482.693756 
	C376.700104,489.655884 380.077057,496.278381 385.483185,501.651062 
	C397.887848,513.979004 425.437897,512.368713 437.920532,494.657990 
	C444.890747,484.768463 446.487457,473.631134 450.398346,463.026886 
	C451.578033,459.828156 450.676514,456.609528 446.625336,455.630127 
	C440.053925,454.041473 433.881531,451.329041 426.912109,450.752380 
	C407.529541,449.148590 391.399414,455.999237 377.446411,468.652802 
	C373.855743,471.909149 370.765411,476.359100 373.884918,482.693756 
z"/>
<path fill="#000000" opacity="1.000000" stroke="none" 
	d="
M551.049011,435.091003 
	C541.283081,442.900421 530.878906,447.738129 518.336304,447.340118 
	C503.116882,446.857147 492.757843,439.716339 486.306427,426.010223 
	C481.932800,416.718414 480.505859,407.449615 483.458923,397.492859 
	C484.295349,394.672760 484.236633,391.573456 484.478302,388.593292 
	C485.149200,380.319702 489.251129,374.321381 496.281586,370.050629 
	C506.590912,363.787994 517.300110,359.083191 529.726379,361.820068 
	C547.202148,365.669159 560.604919,374.574921 566.270996,392.520294 
	C568.601013,399.899902 566.628906,407.205048 564.462769,414.079926 
	C561.971924,421.984924 557.999451,429.393860 551.049011,435.091003 
M526.892395,392.634674 
	C530.263000,394.934448 533.236450,398.437042 537.890137,397.439758 
	C542.171814,396.522186 545.618896,394.180634 546.772949,389.631805 
	C547.694641,385.999237 544.319214,380.289185 540.289001,377.493073 
	C533.982727,373.117859 526.885681,373.024170 519.693359,373.285339 
	C515.215271,373.447937 514.164429,375.296173 516.202148,379.432312 
	C518.653625,384.408234 521.739075,388.906494 526.892395,392.634674 
z"/>
<path fill="#000000" opacity="1.000000" stroke="none" 
	d="
M284.238708,380.950928 
	C296.946472,380.195374 308.385895,382.408813 317.648743,391.018250 
	C326.960693,399.673340 335.286591,415.903748 328.905090,430.728394 
	C326.085754,437.277863 324.292053,444.244598 319.700867,449.943726 
	C316.674927,453.699860 313.061035,455.782928 308.024414,455.253387 
	C304.217224,454.853119 300.406525,455.176849 296.591309,455.897797 
	C291.419983,456.875000 286.355011,456.219849 281.450806,454.101776 
	C278.715332,452.920380 275.766510,452.244019 272.962494,451.208313 
	C263.009827,447.532043 255.907196,440.586578 250.556320,431.614136 
	C247.284409,426.127716 249.541061,420.508209 250.210464,415.021362 
	C252.412201,396.974335 267.369720,381.951538 284.238708,380.950928 
M269.702393,408.987518 
	C269.463348,412.988373 271.222107,415.159271 275.337585,415.457336 
	C280.713470,415.846680 284.454224,413.308838 287.561615,409.229614 
	C290.580475,405.266632 291.802368,400.994690 290.354065,396.153107 
	C289.906616,394.657349 288.896637,393.677795 287.195831,393.342560 
	C279.686188,391.862549 269.419952,400.475525 269.702393,408.987518 
z"/>
<path fill="#000000" opacity="1.000000" stroke="none" 
	d="
M353.801147,779.100952 
	C347.025146,769.938660 347.036133,759.562439 348.398926,749.597717 
	C350.664124,733.034241 357.768158,719.245667 374.466583,712.288452 
	C378.938629,710.425232 383.396545,710.011597 388.056946,709.770996 
	C400.640961,709.121216 412.443970,710.775391 422.926971,718.777161 
	C440.305756,732.042542 444.503479,745.515625 440.132721,766.441895 
	C436.197906,785.281067 414.730042,801.430298 396.230316,801.496765 
	C377.393188,801.564514 365.020050,792.582642 353.801147,779.100952 
M405.555054,726.849915 
	C404.334503,726.323242 403.076965,725.868042 401.899200,725.258606 
	C392.144989,720.211670 376.129242,724.852600 370.708405,734.285400 
	C367.117432,740.533997 364.570465,747.056519 363.669403,754.325378 
	C362.262054,765.678528 372.979767,779.693726 384.424866,779.867432 
	C402.685120,780.144531 407.834808,780.219299 414.481293,762.376831 
	C414.596039,762.068848 414.828613,761.806702 414.967712,761.505371 
	C419.835327,750.961426 415.300751,733.221313 405.555054,726.849915 
M428.508881,753.498047 
	C427.378937,747.287292 429.180450,740.363098 424.136047,734.440063 
	C424.136047,740.087952 424.483612,745.075378 424.046387,749.993103 
	C423.522217,755.888489 423.169403,761.954468 420.222961,767.303223 
	C418.144012,771.077209 415.554779,774.566650 413.373901,778.288879 
	C410.794281,782.691833 407.527649,785.918457 402.089844,786.243530 
	C400.380676,786.345703 398.683899,786.746582 396.965210,788.541931 
	C408.368164,789.193115 414.878784,781.939697 421.772369,775.598633 
	C426.008636,771.701904 427.895142,766.613831 427.964935,760.833008 
	C427.990997,758.676086 428.285889,756.522339 428.508881,753.498047 
z"/>
<path fill="#000000" opacity="1.000000" stroke="none" 
	d="
M319.027344,120.488708 
	C313.270752,118.568916 307.894257,116.283661 306.146820,110.292595 
	C304.168152,103.508736 308.118286,98.110062 311.648956,92.871841 
	C312.851532,91.087669 315.183838,91.139412 317.173035,91.169716 
	C338.745850,91.498337 360.244843,88.452858 381.835205,89.758286 
	C385.134796,89.957794 388.009613,88.502884 390.981201,87.554558 
	C399.272644,84.908508 409.012787,91.715942 409.136719,100.420166 
	C409.204865,105.207237 404.817291,109.581482 398.534698,111.500572 
	C393.713470,112.973274 388.741577,113.342247 383.817200,113.935432 
	C371.145813,115.461830 358.531158,117.569504 345.668304,117.164879 
	C336.781311,116.885315 327.748535,116.201324 319.027344,120.488708 
M330.505920,102.256386 
	C327.675385,102.250084 324.843872,102.195885 322.014740,102.256119 
	C320.412140,102.290245 318.532440,101.866318 317.667755,103.845009 
	C317.160767,105.005280 317.506561,106.229698 318.224823,107.154709 
	C319.581787,108.902237 321.305328,107.873451 322.787476,107.366737 
	C328.740479,105.331512 334.957642,105.355446 341.060211,105.438103 
	C356.897980,105.652618 372.632904,104.610619 388.304535,102.498718 
	C390.676361,102.179085 393.368561,101.834557 395.729401,98.423950 
	C389.102142,100.737053 383.560181,102.456947 377.700348,102.189690 
	C362.294342,101.487053 346.891205,100.116524 330.505920,102.256386 
z"/>
<path fill="#000000" opacity="1.000000" stroke="none" 
	d="
M296.258728,115.001678 
	C287.111511,122.442535 280.306641,122.644035 271.164856,116.205307 
	C268.730743,114.490891 268.069855,111.995522 267.537018,109.380371 
	C266.408752,103.843040 270.236023,96.026421 275.324615,93.370720 
	C281.226746,90.290428 285.428192,91.282478 290.777496,96.850174 
	C295.615356,101.885551 300.422852,106.873093 296.258728,115.001678 
M285.606628,106.655716 
	C284.784485,103.977631 282.812195,103.106171 280.244232,103.429428 
	C279.164551,103.565338 278.491669,104.479813 278.548157,105.559937 
	C278.661072,107.719467 280.354767,108.606422 282.045990,109.321228 
	C283.965973,110.132706 285.257874,109.516373 285.606628,106.655716 
z"/>
<path fill="#000000" opacity="1.000000" stroke="none" 
	d="
M574.037354,605.423462 
	C574.320923,613.528381 576.294312,621.118835 576.461609,628.627319 
	C576.790283,643.386780 578.232300,658.745728 567.898010,671.568787 
	C564.734192,675.494568 561.024048,678.467346 555.912170,678.922302 
	C539.980469,680.340332 524.047729,681.245972 508.154358,678.316101 
	C500.249725,676.858948 494.957825,672.775635 492.559662,664.813660 
	C490.669952,658.539612 489.647980,652.171204 489.155060,645.703857 
	C488.220215,633.437439 487.570984,621.150330 489.742737,608.936157 
	C491.081665,601.406006 497.457886,598.094971 503.157928,595.224060 
	C510.977295,591.285645 519.418762,588.272583 528.289551,587.416504 
	C535.412720,586.729126 542.325928,589.645996 549.534973,589.063904 
	C554.590454,588.655640 559.245605,590.422424 564.013855,592.158936 
	C570.338684,594.462341 573.414307,598.565002 574.037354,605.423462 
M556.070496,606.714966 
	C561.086731,622.806946 559.078979,639.389893 559.225403,655.786255 
	C559.266968,660.439636 554.965332,663.063965 550.697571,663.677979 
	C546.246033,664.318481 541.812256,663.560303 538.693970,659.358154 
	C535.975159,655.694458 535.591553,652.198975 538.211609,648.414856 
	C539.443542,646.635559 540.801270,644.905884 541.760132,642.983276 
	C543.565369,639.363525 543.778687,635.205200 541.891907,631.917358 
	C539.951599,628.536133 536.257507,630.492920 533.247192,631.157104 
	C532.598816,631.300110 531.926208,631.329285 531.269470,631.439453 
	C526.058289,632.313843 524.280457,634.557556 525.358276,639.650757 
	C526.212158,643.685791 526.976501,647.720398 528.838684,651.571838 
	C530.595886,655.206116 532.478760,659.582581 528.426270,663.061890 
	C525.939270,665.197144 524.888855,668.090881 522.256042,671.025879 
	C532.328430,670.486328 541.453003,670.110779 550.557495,669.457031 
	C554.497925,669.174133 558.215149,667.652283 560.285645,664.101746 
	C563.213257,659.081482 565.650208,653.834778 565.741638,647.763428 
	C565.942322,634.452026 566.079346,621.187927 563.849915,607.956726 
	C562.815063,601.815063 560.373352,599.144958 553.593262,599.508118 
	C553.744934,601.872681 554.672424,603.969177 556.070496,606.714966 
M540.215271,599.239807 
	C542.723938,599.066345 545.232544,598.892883 547.741211,598.719482 
	C536.668701,597.445190 525.760803,598.074341 515.442261,602.367615 
	C507.371918,605.725464 500.405823,610.156860 500.429565,620.622925 
	C500.462067,634.935364 500.563660,649.207092 504.382263,663.137512 
	C505.651855,667.768982 509.090118,669.293518 513.625671,668.800781 
	C515.039673,668.647217 516.957458,669.227417 517.410645,667.272583 
	C517.887573,665.215332 515.854736,665.023987 514.591797,664.421021 
	C507.360809,660.969055 506.290070,659.105347 508.653198,651.587708 
	C510.144775,646.842712 510.042236,642.354187 507.987823,637.993042 
	C505.203308,632.082153 504.849670,625.830322 504.668365,619.485657 
	C504.571442,616.092651 505.929932,614.407410 509.111084,612.738037 
	C518.927124,607.586609 530.413696,606.305969 540.215271,599.239807 
M527.207397,624.670288 
	C531.859924,623.599243 536.495789,622.446167 541.171936,621.490723 
	C543.611816,620.992188 545.207642,619.357422 547.042847,617.947754 
	C548.774048,616.618164 549.054932,614.933655 548.608948,613.068115 
	C548.089355,610.894470 546.165039,610.197205 544.347839,610.364807 
	C535.117615,611.215881 525.841980,612.083496 517.712585,617.197571 
	C513.983765,619.543335 514.009521,624.570984 518.061890,628.228699 
	C519.396301,623.656250 523.093689,624.804932 527.207397,624.670288 
M552.359558,645.630615 
	C551.671631,640.794739 552.580627,635.748657 550.600037,631.043579 
	C550.857300,638.845825 549.857605,646.518738 548.931702,654.304626 
	C551.392212,652.052429 552.747009,649.590332 552.359558,645.630615 
M516.944946,643.063782 
	C516.944946,642.099731 516.944946,641.135681 516.944946,639.530640 
	C514.395020,644.281616 516.551331,648.633057 515.934326,652.858276 
	C515.322937,657.045532 517.000427,658.068298 522.142151,656.283447 
	C518.231567,652.886475 516.954041,648.573547 516.944946,643.063782 
z"/>
<path fill="#000000" opacity="1.000000" stroke="none" 
	d="
M456.272430,682.541504 
	C442.628571,685.517090 429.761841,685.286438 417.762878,677.964966 
	C410.207642,673.354858 406.513824,666.604553 405.871582,657.809998 
	C405.158997,648.051880 404.373444,638.273560 402.976593,628.596863 
	C400.815613,613.626526 408.080811,602.323059 422.710449,598.630310 
	C436.447418,595.162964 450.386902,595.158447 464.364349,596.092590 
	C470.386353,596.495117 472.228516,598.596863 472.230286,604.757935 
	C472.232056,610.838745 473.688812,616.639771 475.338501,622.363220 
	C479.412170,636.496155 478.569641,650.645813 476.102905,664.860596 
	C474.466492,674.290344 469.262360,680.140015 459.531921,681.535034 
	C458.555115,681.675049 457.619934,682.105469 456.272430,682.541504 
M462.831909,624.285828 
	C461.864044,621.287781 461.316101,618.360046 461.627594,615.066101 
	C462.172333,609.305725 459.453583,607.075928 453.667480,607.005615 
	C443.092407,606.877197 432.964569,609.722046 422.725677,611.628662 
	C415.619476,612.951904 412.471436,620.541199 415.381897,627.255676 
	C417.408752,624.551636 416.464386,619.835205 420.422424,618.608521 
	C424.018036,617.494263 426.798553,615.002380 430.136993,613.712219 
	C437.278961,610.952332 444.375793,608.476929 451.430573,614.924683 
	C455.183594,618.354736 459.631836,621.071716 462.985229,625.924377 
	C464.308380,637.392334 461.900116,648.278198 456.572357,658.272217 
	C453.577698,663.889832 449.297485,669.314514 442.111389,669.990906 
	C432.648987,670.881531 424.322571,668.545532 418.815826,659.922546 
	C417.996704,658.639893 417.424957,657.028625 414.992004,655.978333 
	C417.103668,660.059692 418.990326,663.337891 420.517914,666.775574 
	C421.732697,669.509460 423.637115,670.859070 426.512146,671.366699 
	C436.114410,673.062073 445.735138,673.126099 455.340759,671.656006 
	C459.342194,671.043640 462.432617,668.928162 463.746124,664.777466 
	C467.968201,651.435852 465.592651,638.232361 462.831909,624.285828 
M454.331726,642.655396 
	C454.627319,637.940491 456.861481,633.264221 454.485992,628.493225 
	C453.599792,626.713318 452.351013,625.515015 450.368591,625.317383 
	C448.734283,625.154419 447.972931,626.393250 447.546234,627.666077 
	C445.811646,632.840271 443.631836,637.948975 442.674072,643.272217 
	C441.950073,647.296387 440.199768,649.967834 437.005371,652.061829 
	C434.292389,653.840210 432.036560,656.084473 434.248169,659.394958 
	C436.674438,663.026794 439.734833,661.780212 442.933044,659.935669 
	C449.400940,656.205200 451.708740,649.828918 454.331726,642.655396 
M428.187134,635.899292 
	C429.967651,631.876160 433.674469,628.723206 434.068909,623.388916 
	C427.803131,627.087219 421.680023,629.985046 422.104675,638.281677 
	C422.281952,641.745117 422.504089,644.957092 426.888062,646.860352 
	C425.864532,642.870850 426.591003,639.690918 428.187134,635.899292 
z"/>
</svg>